<svg height="27" viewBox="0 0 39.273 27" width="39.273" xmlns="http://www.w3.org/2000/svg"><g fill="#fff"><path d="m339.392 153.619 13.24 8.37v-17.089z" transform="translate(-313.359 -139.918)"/><path d="m0 144.9v17.093l13.24-8.37z" transform="translate(0 -139.918)"/><path d="m37.7 80h-34.359a2.424 2.424 0 0 0 -2.381 2.089l19.563 12.889 19.562-12.889a2.424 2.424 0 0 0 -2.385-2.089z" transform="translate(-.886 -80)"/><path d="m24.73 277.922-3.473 2.288a1.232 1.232 0 0 1 -1.35 0l-3.473-2.29-15.41 9.747a2.42 2.42 0 0 0 2.376 2.072h34.364a2.42 2.42 0 0 0 2.376-2.072z" transform="translate(-.945 -262.739)"/></g></svg>