<svg height="83.689" viewBox="0 0 83.682 83.689" width="83.682" xmlns="http://www.w3.org/2000/svg"><g fill="#0063bc"><path d="m71.422 12.261a41.835 41.835 0 0 0 -61.8 56.264c-1.345 2.707-3.5 5.856-6.706 7.431a3.925 3.925 0 0 0 1.132 7.4 21.624 21.624 0 0 0 3.309.248 24.98 24.98 0 0 0 14.721-4.883 41.83 41.83 0 0 0 49.344-66.46zm-3.38 55.787a37.057 37.057 0 0 1 -44.976 5.768 2.379 2.379 0 0 0 -2.9.372.786.786 0 0 0 -.195.142 20.427 20.427 0 0 1 -12.616 4.493h-.018a23.426 23.426 0 0 0 7.183-9.537 2.444 2.444 0 0 0 .124-1.539 2.484 2.484 0 0 0 -.584-1.347 37.061 37.061 0 1 1 53.982 1.645z" transform="translate(-.019)"/><circle cx="41.82" cy="41.844" r="2.937"/><circle cx="56.965" cy="41.844" r="2.937"/><circle cx="26.675" cy="41.844" r="2.937"/></g></svg>