<svg height="86" viewBox="0 0 104.432 86" width="104.432" xmlns="http://www.w3.org/2000/svg"><g fill="#0063bc"><ellipse cx="52.001" cy="79" rx="6.5" ry="7"/><path d="m103.337 67.807a69.731 69.731 0 0 0 -102.242 0 4.079 4.079 0 1 0 5.969 5.563 61.572 61.572 0 0 1 90.305 0 4.079 4.079 0 0 0 5.969-5.563z" transform="translate(0 -45.5)"/><path d="m146.467 177.03a49.925 49.925 0 0 0 -72.285 0 4.079 4.079 0 1 0 5.791 5.747 41.772 41.772 0 0 1 60.7 0 4.08 4.08 0 0 0 5.791-5.747z" transform="translate(-58.108 -137.877)"/><path d="m192.293 287.024a29.436 29.436 0 0 0 -19.854-8.524h-.3a29.438 29.438 0 0 0 -19.855 8.524 4.079 4.079 0 1 0 5.742 5.8 21.3 21.3 0 0 1 14.113-6.161h.3a21.3 21.3 0 0 1 14.112 6.161 4.079 4.079 0 0 0 5.742-5.8z" transform="translate(-120.261 -230.975)"/></g></svg>