<svg height="98.406" viewBox="0 0 98.406 98.406" width="98.406" xmlns="http://www.w3.org/2000/svg"><g fill="#0063bc"><path d="m153.267 204.8a8.2 8.2 0 0 0 0 16.4 1.64 1.64 0 0 0 0-3.28 4.92 4.92 0 1 1 4.92-4.92 1.64 1.64 0 1 0 3.28 0 8.21 8.21 0 0 0 -8.2-8.2z" transform="translate(-117.184 -165.437)"/><path d="m195.934 170.667a8.21 8.21 0 0 0 -8.2 8.2 1.64 1.64 0 0 0 3.28 0 4.92 4.92 0 1 1 9.841 0 1.64 1.64 0 0 0 3.28 0 8.209 8.209 0 0 0 -8.201-8.2z" transform="translate(-151.651 -137.865)"/><path d="m255.667 145.067a8.21 8.21 0 0 0 -8.2 8.2 1.64 1.64 0 1 0 3.28 0 4.92 4.92 0 0 1 9.841 0 1.64 1.64 0 1 0 3.28 0 8.209 8.209 0 0 0 -8.201-8.2z" transform="translate(-199.903 -117.185)"/><path d="m289.8 187.733a8.21 8.21 0 0 0 -8.2 8.2 1.64 1.64 0 1 0 3.28 0 4.92 4.92 0 1 1 9.841 0 1.64 1.64 0 1 0 3.28 0 8.21 8.21 0 0 0 -8.201-8.2z" transform="translate(-227.476 -151.651)"/><path d="m159.8 426.667h-55.76a1.64 1.64 0 0 0 -1.64 1.64v7.764a7 7 0 0 0 7 7h45.051a7 7 0 0 0 7-7v-7.764a1.64 1.64 0 0 0 -1.651-1.64zm-1.64 9.4a3.72 3.72 0 0 1 -3.715 3.716h-45.045a3.721 3.721 0 0 1 -3.717-3.716v-6.124h52.483z" transform="translate(-82.719 -344.662)"/><path d="m233.348 460.8h-9.841a1.64 1.64 0 1 0 0 3.28h9.841a1.64 1.64 0 0 0 0-3.28z" transform="translate(-179.224 -372.234)"/><path d="m323.934 460.8h-6.56a1.64 1.64 0 0 0 0 3.28h6.56a1.64 1.64 0 0 0 0-3.28z" transform="translate(-255.05 -372.234)"/><path d="m153.267 460.8h-6.56a1.64 1.64 0 0 0 0 3.28h6.56a1.64 1.64 0 0 0 0-3.28z" transform="translate(-117.185 -372.234)"/><path d="m154.449 0h-45.049a7 7 0 0 0 -7 7v7.764a1.64 1.64 0 0 0 1.64 1.64h55.76a1.64 1.64 0 0 0 1.64-1.64v-7.764a7 7 0 0 0 -6.991-7zm3.715 13.121h-52.484v-6.121a3.721 3.721 0 0 1 3.72-3.72h45.051a3.72 3.72 0 0 1 3.713 3.72v6.124z" transform="translate(-82.719)"/><path d="m222.842 34.133h-16.4a1.64 1.64 0 1 0 0 3.28h16.4a1.64 1.64 0 1 0 0-3.28z" transform="translate(-165.438 -27.573)"/><path d="m159.8 68.267h-55.76a1.64 1.64 0 0 0 -1.64 1.64v68.884a1.64 1.64 0 0 0 1.64 1.64h55.76a1.64 1.64 0 0 0 1.64-1.64v-68.884a1.639 1.639 0 0 0 -1.64-1.64zm-1.64 68.884h-52.48v-65.6h52.483v65.6z" transform="translate(-82.719 -55.146)"/><path d="m438.368 188.916a1.64 1.64 0 0 0 -3.151.915 39.634 39.634 0 0 1 -.012 22.081 1.641 1.641 0 0 0 1.115 2.034 1.667 1.667 0 0 0 .461.066 1.642 1.642 0 0 0 1.575-1.179 42.905 42.905 0 0 0 .011-23.916z" transform="translate(-351.507 -151.651)"/><path d="m56.115 211.9a39.619 39.619 0 0 1 -.01-22.082 1.64 1.64 0 0 0 -3.151-.915 42.907 42.907 0 0 0 .012 23.916 1.638 1.638 0 0 0 1.573 1.181 1.6 1.6 0 0 0 .461-.066 1.639 1.639 0 0 0 1.115-2.034z" transform="translate(-41.408 -151.644)"/><path d="m3.28 173.28c0-6.675 1.114-12.845 3.137-17.372a1.64 1.64 0 0 0 -2.995-1.338c-2.207 4.94-3.422 11.582-3.422 18.71s1.215 13.77 3.421 18.71a1.645 1.645 0 0 0 1.5.971 1.617 1.617 0 0 0 .669-.143 1.641 1.641 0 0 0 .828-2.167c-2.024-4.525-3.138-10.695-3.138-17.371z" transform="translate(0 -124.077)"/><path d="m481 154.568a1.64 1.64 0 0 0 -2.995 1.338c2.024 4.527 3.138 10.7 3.138 17.372s-1.114 12.845-3.136 17.372a1.642 1.642 0 0 0 .828 2.167 1.609 1.609 0 0 0 .668.143 1.641 1.641 0 0 0 1.5-.971c2.208-4.94 3.423-11.583 3.423-18.71s-1.215-13.771-3.426-18.711z" transform="translate(-386.02 -124.075)"/><path d="m201.829 349.867h-29.522a1.64 1.64 0 1 0 0 3.28h29.522a1.64 1.64 0 1 0 0-3.28z" transform="translate(-137.865 -282.623)"/><path d="m180.817 315.733h-42.643a1.64 1.64 0 0 0 -1.64 1.64v13.121a1.64 1.64 0 0 0 1.64 1.64h42.643a1.64 1.64 0 0 0 1.64-1.64v-13.121a1.64 1.64 0 0 0 -1.64-1.64zm-1.64 13.121h-39.363v-9.841h39.363z" transform="translate(-110.292 -255.049)"/></g></svg>