<svg height="79.404" viewBox="0 0 105.872 79.404" width="105.872" xmlns="http://www.w3.org/2000/svg"><path d="m97.049 64h-88.226a8.833 8.833 0 0 0 -8.823 8.823v52.936a8.833 8.833 0 0 0 8.823 8.823h37.5v4.411h-13.238a2.206 2.206 0 1 0 0 4.411h39.7a2.206 2.206 0 1 0 0-4.411h-13.232v-4.411h37.5a8.833 8.833 0 0 0 8.823-8.823v-52.936a8.833 8.833 0 0 0 -8.827-8.823zm-41.907 74.993h-4.411v-4.411h4.411zm46.319-13.234a4.416 4.416 0 0 1 -4.411 4.411h-88.227a4.416 4.416 0 0 1 -4.411-4.411v-52.936a4.416 4.416 0 0 1 4.411-4.411h88.227a4.416 4.416 0 0 1 4.411 4.411z" fill="#0063bc" transform="translate(0 -64)"/></svg>