<svg height="41.741" viewBox="0 0 41.741 41.741" width="41.741" xmlns="http://www.w3.org/2000/svg"><g fill="#0063bc"><path d="m148.544 204.8a3.478 3.478 0 0 0 0 6.957.7.7 0 0 0 0-1.391 2.087 2.087 0 1 1 2.087-2.087.7.7 0 1 0 1.391 0 3.482 3.482 0 0 0 -3.478-3.479z" transform="translate(-133.239 -188.104)"/><path d="m191.211 170.667a3.482 3.482 0 0 0 -3.478 3.478.7.7 0 1 0 1.391 0 2.087 2.087 0 0 1 4.174 0 .7.7 0 1 0 1.391 0 3.482 3.482 0 0 0 -3.478-3.478z" transform="translate(-172.428 -156.753)"/><path d="m250.944 145.067a3.482 3.482 0 0 0 -3.478 3.478.7.7 0 1 0 1.391 0 2.087 2.087 0 0 1 4.174 0 .7.7 0 1 0 1.391 0 3.482 3.482 0 0 0 -3.478-3.478z" transform="translate(-227.291 -133.24)"/><path d="m285.078 187.733a3.482 3.482 0 0 0 -3.478 3.478.7.7 0 1 0 1.391 0 2.087 2.087 0 1 1 4.174 0 .7.7 0 0 0 1.391 0 3.482 3.482 0 0 0 -3.478-3.478z" transform="translate(-258.643 -172.428)"/><path d="m126.749 426.667h-23.649a.7.7 0 0 0 -.7.7v3.293a2.971 2.971 0 0 0 2.968 2.968h19.109a2.971 2.971 0 0 0 2.968-2.968v-3.293a.7.7 0 0 0 -.696-.7zm-.7 3.989a1.578 1.578 0 0 1 -1.576 1.576h-19.11a1.578 1.578 0 0 1 -1.576-1.576v-2.6h22.262z" transform="translate(-94.052 -391.883)"/><path d="m226.737 460.8h-4.174a.7.7 0 1 0 0 1.391h4.174a.7.7 0 1 0 0-1.391z" transform="translate(-203.779 -423.233)"/><path d="m319.212 460.8h-2.782a.7.7 0 0 0 0 1.391h2.783a.7.7 0 1 0 0-1.391z" transform="translate(-289.994 -423.233)"/><path d="m148.545 460.8h-2.783a.7.7 0 0 0 0 1.391h2.783a.7.7 0 1 0 0-1.391z" transform="translate(-133.24 -423.233)"/><path d="m124.477 0h-19.11a2.971 2.971 0 0 0 -2.967 2.968v3.293a.7.7 0 0 0 .7.7h23.653a.7.7 0 0 0 .7-.7v-3.293a2.971 2.971 0 0 0 -2.976-2.968zm1.576 5.565h-22.262v-2.6a1.578 1.578 0 0 1 1.576-1.576h19.109a1.578 1.578 0 0 1 1.576 1.576v2.6z" transform="translate(-94.052)"/><path d="m212.453 34.133h-6.953a.7.7 0 0 0 0 1.391h6.957a.7.7 0 0 0 0-1.391z" transform="translate(-188.105 -31.35)"/><path d="m126.749 68.267h-23.649a.7.7 0 0 0 -.7.7v29.214a.7.7 0 0 0 .7.7h23.653a.7.7 0 0 0 .7-.7v-29.218a.7.7 0 0 0 -.704-.696zm-.7 29.219h-22.258v-27.828h22.262v27.828z" transform="translate(-94.052 -62.702)"/><path d="m436.51 188.235a.7.7 0 0 0 -1.336.388 16.811 16.811 0 0 1 0 9.366.7.7 0 0 0 .473.863.707.707 0 0 0 .2.028.7.7 0 0 0 .668-.5 18.2 18.2 0 0 0 0-10.144z" transform="translate(-399.666 -172.428)"/><path d="m53.319 197.981a16.805 16.805 0 0 1 0-9.367.7.7 0 0 0 -1.336-.388 18.2 18.2 0 0 0 0 10.144.7.7 0 0 0 .667.5.681.681 0 0 0 .2-.028.7.7 0 0 0 .469-.861z" transform="translate(-47.081 -172.421)"/><path d="m1.391 161.947a18.651 18.651 0 0 1 1.331-7.369.7.7 0 0 0 -1.27-.568 22.422 22.422 0 0 0 0 15.873.7.7 0 0 0 .636.412.686.686 0 0 0 .284-.061.7.7 0 0 0 .351-.919 18.651 18.651 0 0 1 -1.332-7.368z" transform="translate(0 -141.077)"/><path d="m479.2 154.008a.7.7 0 0 0 -1.27.568 21.07 21.07 0 0 1 0 14.737.7.7 0 0 0 .351.919.682.682 0 0 0 .283.061.7.7 0 0 0 .635-.412 22.417 22.417 0 0 0 0-15.873z" transform="translate(-438.908 -141.074)"/><path d="m183.885 349.867h-12.522a.7.7 0 1 0 0 1.391h12.522a.7.7 0 1 0 0-1.391z" transform="translate(-156.753 -321.344)"/><path d="m155.317 315.733h-18.087a.7.7 0 0 0 -.7.7v5.565a.7.7 0 0 0 .7.7h18.088a.7.7 0 0 0 .7-.7v-5.565a.7.7 0 0 0 -.701-.7zm-.7 5.565h-16.7v-4.174h16.7z" transform="translate(-125.403 -289.993)"/></g></svg>