<svg height="35" viewBox="0 0 41.917 35" width="41.917" xmlns="http://www.w3.org/2000/svg"><g fill="#0063bc"><ellipse cx="21.001" cy="32" rx="2.5" ry="3"/><path d="m41.477 54.453a27.988 27.988 0 0 0 -41.038 0 1.637 1.637 0 1 0 2.4 2.233 24.714 24.714 0 0 1 36.246 0 1.637 1.637 0 1 0 2.4-2.233z" transform="translate(0 -45.5)"/><path d="m102.487 167.762a20.039 20.039 0 0 0 -29.014 0 1.637 1.637 0 0 0 2.325 2.307 16.766 16.766 0 0 1 24.365 0 1.637 1.637 0 0 0 2.324-2.307z" transform="translate(-67.021 -152.046)"/><path d="m167.619 281.921a11.815 11.815 0 0 0 -7.969-3.421h-.12a11.816 11.816 0 0 0 -7.969 3.421 1.637 1.637 0 0 0 2.3 2.326 8.55 8.55 0 0 1 5.665-2.473h.12a8.55 8.55 0 0 1 5.664 2.473 1.637 1.637 0 0 0 2.3-2.326z" transform="translate(-138.707 -259.425)"/></g></svg>